<svg width="29" height="31" viewBox="0 0 29 31" fill="none" xmlns="http://www.w3.org/2000/svg">
<path d="M13.6947 0.00390734C6.12264 0.00390734 0.000528597 4.40862 0.000528597 9.79215C0.000528597 11.7498 0.80607 13.5443 2.25604 15.1757C0.770463 17.1409 -0.0234723 19.5527 0.000528597 22.0274V27.7373C0.000528597 29.5318 1.4505 31 3.22269 31H24.1668C25.0213 31 25.8409 30.6562 26.4452 30.0444C27.0494 29.4325 27.3889 28.6026 27.3889 27.7373V22.0274C27.3889 20.0698 26.9056 18.1122 25.7778 16.3176L29 13.0549L24.1668 8.16077L20.7835 11.5867C18.4685 10.3123 15.8599 9.68589 13.2263 9.77191C10.5928 9.85793 8.02947 10.6533 5.80042 12.0761C5.19332 11.4737 4.84588 10.6528 4.83377 9.79215C4.83377 6.85567 8.86148 4.40862 13.6947 4.40862C15.9502 4.40862 18.2057 5.06116 19.8168 6.03999L23.039 2.77724C20.2813 0.898974 17.0174 -0.0697283 13.6947 0.00390734ZM13.6947 13.0549C19.3335 13.0549 24.1668 17.949 24.1668 22.0274V27.7373H3.22269V22.0274C3.22269 17.949 8.05594 13.0549 13.6947 13.0549ZM14.5003 15.502C9.66702 15.502 6.44486 17.949 6.44486 22.8431V24.4745H9.66702V22.8431C9.66702 21.2118 9.66702 17.1333 14.5003 15.502Z" fill="white"/>
</svg>
