<svg width="30" height="30" viewBox="0 0 30 30" fill="none" xmlns="http://www.w3.org/2000/svg">
<path d="M2 15.0003H28M25.4 15.0003V25.4001C25.4 26.0896 25.1261 26.7509 24.6385 27.2385C24.1509 27.7261 23.4896 28 22.8 28H7.2C6.51044 28 5.84912 27.7261 5.36152 27.2385C4.87393 26.7509 4.6 26.0896 4.6 25.4001V15.0003M4.6 9.80048L25.4 4.60062M10.918 8.21453L10.333 5.86159C10.2492 5.5304 10.2315 5.18594 10.2808 4.8479C10.3302 4.50985 10.4458 4.18486 10.6208 3.89149C10.7959 3.59812 11.027 3.34212 11.3011 3.13814C11.5752 2.93415 11.8867 2.78618 12.218 2.70267L14.74 2.07869C15.0721 1.99508 15.4174 1.97789 15.7561 2.02811C16.0949 2.07833 16.4203 2.19496 16.7139 2.37132C17.0074 2.54767 17.2632 2.78027 17.4666 3.05576C17.6699 3.33125 17.8169 3.6442 17.899 3.97664L18.484 6.31658" stroke="black" stroke-width="3.33333" stroke-linecap="round" stroke-linejoin="round"/>
</svg>
