<svg width="31" height="24" viewBox="0 0 31 24" fill="none" xmlns="http://www.w3.org/2000/svg">
<path d="M3.37678 0H27.5785C29.2423 0 30.5885 1.35 30.5885 3L30.6037 21C30.6037 22.65 29.2423 24 27.5785 24H3.37678C1.71291 24 0.35157 22.65 0.35157 21V3C0.35157 1.35 1.71291 0 3.37678 0ZM3.98182 6.375L14.6759 13.005C15.16 13.305 15.7953 13.305 16.2793 13.005L26.9734 6.375C27.1251 6.29057 27.2579 6.17649 27.3638 6.03968C27.4698 5.90287 27.5466 5.74617 27.5897 5.57906C27.6328 5.41195 27.6412 5.2379 27.6145 5.06746C27.5878 4.89702 27.5265 4.73372 27.4343 4.58745C27.3421 4.44118 27.221 4.31498 27.0782 4.21649C26.9354 4.118 26.7739 4.04927 26.6036 4.01445C26.4332 3.97963 26.2575 3.97945 26.0871 4.01392C25.9167 4.04839 25.7551 4.1168 25.6121 4.215L15.4776 10.5L5.34316 4.215C5.20017 4.1168 5.03857 4.04839 4.86814 4.01392C4.69771 3.97945 4.522 3.97963 4.35164 4.01445C4.18129 4.04927 4.01983 4.118 3.87704 4.21649C3.73425 4.31498 3.61309 4.44118 3.5209 4.58745C3.42872 4.73372 3.36742 4.89702 3.34071 5.06746C3.31401 5.2379 3.32246 5.41195 3.36555 5.57906C3.40864 5.74617 3.48547 5.90287 3.5914 6.03968C3.69733 6.17649 3.83015 6.29057 3.98182 6.375Z" fill="white"/>
</svg>
