<svg width="25" height="30" viewBox="0 0 25 30" fill="none" xmlns="http://www.w3.org/2000/svg">
<path d="M12.3271 0C9.15239 0.00368622 6.10873 1.24658 3.86384 3.45603C1.61894 5.66548 0.356114 8.66108 0.352369 11.7857C0.348566 14.3392 1.19603 16.8233 2.76474 18.8571C2.76474 18.8571 3.09133 19.2804 3.14467 19.3414L12.3271 30L21.514 19.3361C21.5619 19.2793 21.8896 18.8571 21.8896 18.8571L21.8906 18.8539C23.4586 16.821 24.3056 14.338 24.3019 11.7857C24.2982 8.66108 23.0353 5.66548 20.7905 3.45603C18.5456 1.24658 15.5019 0.00368622 12.3271 0ZM12.3271 16.0714C11.4659 16.0714 10.624 15.8201 9.90794 15.3492C9.19185 14.8782 8.63372 14.2089 8.30415 13.4258C7.97457 12.6427 7.88833 11.781 8.05635 10.9496C8.22437 10.1183 8.63909 9.35462 9.24807 8.75526C9.85706 8.15589 10.6329 7.74771 11.4776 7.58235C12.3223 7.41698 13.1979 7.50185 13.9935 7.82623C14.7892 8.15061 15.4693 8.69992 15.9478 9.4047C16.4262 10.1095 16.6816 10.9381 16.6816 11.7857C16.6802 12.9219 16.2209 14.0112 15.4046 14.8146C14.5883 15.618 13.4816 16.07 12.3271 16.0714Z" fill="white"/>
</svg>
