<svg width="31" height="30" viewBox="0 0 31 30" fill="none" xmlns="http://www.w3.org/2000/svg">
<path d="M23.5992 30.0002C17.436 29.9922 11.5275 27.5559 7.16946 23.2256C2.81141 18.8952 0.359551 13.0242 0.351562 6.90017C0.351563 5.07018 1.08317 3.31514 2.38544 2.02113C3.68771 0.727134 5.45397 0.000171442 7.29566 0.000171442C7.68564 -0.00278026 8.07498 0.0323889 8.45804 0.105171C8.82835 0.159622 9.1924 0.250056 9.54494 0.375171C9.79288 0.461616 10.0138 0.610871 10.1859 0.80818C10.358 1.00549 10.4753 1.24401 10.5262 1.50017L12.5943 10.5002C12.65 10.7445 12.6433 10.9987 12.5748 11.2398C12.5062 11.4809 12.378 11.701 12.2018 11.8802C12.0056 12.0902 11.9905 12.1052 10.1337 13.0652C11.6206 16.3065 14.2295 18.9094 17.4854 20.4002C18.4666 18.5402 18.4817 18.5252 18.693 18.3302C18.8733 18.1551 19.0949 18.0277 19.3375 17.9596C19.5801 17.8915 19.836 17.8848 20.0818 17.9402L29.1394 19.9952C29.3889 20.0527 29.6196 20.1724 29.8097 20.343C29.9999 20.5135 30.1432 20.7294 30.2263 20.9702C30.3537 21.3262 30.4496 21.6926 30.5131 22.0652C30.5738 22.4422 30.6041 22.8234 30.6037 23.2052C30.5758 25.0273 29.8236 26.7646 28.5113 28.0376C27.199 29.3107 25.4331 30.0162 23.5992 30.0002Z" fill="white"/>
</svg>
