<svg width="44" height="47" viewBox="0 0 44 47" fill="none" xmlns="http://www.w3.org/2000/svg">
<path d="M9.09091 8.82418H40L36.3636 26.2967H12.7273M12.7273 26.2967L7.27273 3H0M12.7273 26.2967L14.5455 34.0623H38.1818M34.5455 43.7692C34.0632 43.7692 33.6008 43.5647 33.2598 43.2006C32.9188 42.8365 32.7273 42.3427 32.7273 41.8278C32.7273 41.3129 32.9188 40.8191 33.2598 40.4551C33.6008 40.091 34.0632 39.8864 34.5455 39.8864C35.0277 39.8864 35.4901 40.091 35.8311 40.4551C36.1721 40.8191 36.3636 41.3129 36.3636 41.8278C36.3636 42.3427 36.1721 42.8365 35.8311 43.2006C35.4901 43.5647 35.0277 43.7692 34.5455 43.7692ZM16.3636 43.7692C15.8814 43.7692 15.419 43.5647 15.078 43.2006C14.737 42.8365 14.5455 42.3427 14.5455 41.8278C14.5455 41.3129 14.737 40.8191 15.078 40.4551C15.419 40.091 15.8814 39.8864 16.3636 39.8864C16.8458 39.8864 17.3083 40.091 17.6493 40.4551C17.9903 40.8191 18.1818 41.3129 18.1818 41.8278C18.1818 42.3427 17.9903 42.8365 17.6493 43.2006C17.3083 43.5647 16.8458 43.7692 16.3636 43.7692Z" stroke="black" stroke-width="5"/>
</svg>
