<svg width="29" height="24" viewBox="0 0 29 24" fill="none" xmlns="http://www.w3.org/2000/svg">
<path d="M3.8685 22.5H3.5C2.77065 22.5 2.07118 22.2103 1.55546 21.6945C1.03973 21.1788 0.75 20.4793 0.75 19.75V3.25C0.75 2.52065 1.03973 1.82118 1.55546 1.30546C2.07118 0.789731 2.77065 0.5 3.5 0.5H25.5C26.2293 0.5 26.9288 0.789731 27.4445 1.30546C27.9603 1.82118 28.25 2.52065 28.25 3.25V19.75C28.25 20.4793 27.9603 21.1788 27.4445 21.6945C26.9288 22.2103 26.2293 22.5 25.5 22.5H25.1315C24.8901 22.918 24.543 23.2651 24.1249 23.5065C23.7069 23.7478 23.2327 23.8749 22.75 23.8749C22.2673 23.8749 21.7931 23.7478 21.3751 23.5065C20.957 23.2651 20.6099 22.918 20.3685 22.5H8.6315C8.39013 22.918 8.04298 23.2651 7.62494 23.5065C7.2069 23.7478 6.7327 23.8749 6.25 23.8749C5.7673 23.8749 5.2931 23.7478 4.87506 23.5065C4.45702 23.2651 4.10987 22.918 3.8685 22.5ZM3.5 3.25V19.75H25.5V3.25H3.5ZM6.25 11.5H22.75V17H6.25V11.5ZM6.25 6H13.125V8.75H6.25V6ZM11.75 12.875V14.25H17.25V12.875H11.75ZM17.25 8.75C16.8853 8.75 16.5356 8.60513 16.2777 8.34727C16.0199 8.08941 15.875 7.73967 15.875 7.375C15.875 7.01033 16.0199 6.66059 16.2777 6.40273C16.5356 6.14487 16.8853 6 17.25 6C17.6147 6 17.9644 6.14487 18.2223 6.40273C18.4801 6.66059 18.625 7.01033 18.625 7.375C18.625 7.73967 18.4801 8.08941 18.2223 8.34727C17.9644 8.60513 17.6147 8.75 17.25 8.75ZM21.375 8.75C21.0103 8.75 20.6606 8.60513 20.4027 8.34727C20.1449 8.08941 20 7.73967 20 7.375C20 7.01033 20.1449 6.66059 20.4027 6.40273C20.6606 6.14487 21.0103 6 21.375 6C21.7397 6 22.0894 6.14487 22.3473 6.40273C22.6051 6.66059 22.75 7.01033 22.75 7.375C22.75 7.73967 22.6051 8.08941 22.3473 8.34727C22.0894 8.60513 21.7397 8.75 21.375 8.75Z" fill="black"/>
</svg>
